<?xml version="1.0" encoding="utf-8"?>
<!-- Generator: Adobe Illustrator 16.0.0, SVG Export Plug-In . SVG Version: 6.00 Build 0)  -->
<!DOCTYPE svg PUBLIC "-//W3C//DTD SVG 1.1//EN" "http://www.w3.org/Graphics/SVG/1.1/DTD/svg11.dtd">
<svg version="1.1" id="Layer_1" xmlns="http://www.w3.org/2000/svg" xmlns:xlink="http://www.w3.org/1999/xlink" x="0px" y="0px"
	 width="19.182px" height="20px" viewBox="0 0 19.182 20" enable-background="new 0 0 19.182 20" xml:space="preserve">
<g>
	<path fill="#7CC3A8" d="M4.328,3.85c0.532,0,0.964-0.431,0.964-0.962V0.962C5.292,0.431,4.86,0,4.328,0
		C3.797,0,3.366,0.431,3.366,0.962v1.926C3.366,3.419,3.797,3.85,4.328,3.85z"/>
	<path fill="#7CC3A8" d="M9.589,3.85c0.532,0,0.964-0.431,0.964-0.962V0.962C10.554,0.431,10.122,0,9.589,0
		C9.059,0,8.628,0.431,8.628,0.962v1.926C8.628,3.419,9.059,3.85,9.589,3.85z"/>
	<path fill="#7CC3A8" d="M14.851,3.85c0.533,0,0.965-0.431,0.965-0.962V0.962C15.815,0.431,15.384,0,14.851,0
		c-0.531,0-0.961,0.431-0.961,0.962v1.926C13.89,3.419,14.319,3.85,14.851,3.85z"/>
	<path fill="#7CC3A8" d="M16.949,1.792v1.124c0,1.155-0.94,2.096-2.096,2.096c-1.157,0-2.099-0.94-2.099-2.096V1.792h-1.067v1.124
		c0,1.155-0.94,2.096-2.097,2.096s-2.097-0.94-2.097-2.096V1.792H6.426v1.124c0,1.155-0.941,2.096-2.098,2.096
		c-1.155,0-2.095-0.94-2.095-2.096V1.792H0V20h19.182V1.792H16.949z M9.598,14.508H2.483v-1.461h7.115V14.508z M16.713,11.586H2.483
		v-1.461h14.229V11.586z M16.713,8.665H2.483V7.203h14.229V8.665z"/>
</g>
</svg>
