<?xml version="1.0" encoding="utf-8"?>
<!-- Generator: Adobe Illustrator 16.0.0, SVG Export Plug-In . SVG Version: 6.00 Build 0)  -->
<!DOCTYPE svg PUBLIC "-//W3C//DTD SVG 1.1//EN" "http://www.w3.org/Graphics/SVG/1.1/DTD/svg11.dtd">
<svg version="1.1" id="Layer_1" xmlns="http://www.w3.org/2000/svg" xmlns:xlink="http://www.w3.org/1999/xlink" x="0px" y="0px"
	 width="14.992px" height="20px" viewBox="0 0 14.992 20" enable-background="new 0 0 14.992 20" xml:space="preserve">
<path fill="#7CC3A8" d="M7.307,19.922c0.099,0.104,0.28,0.104,0.379,0c0.299-0.314,7.307-6.793,7.307-12.425
	C14.992,3.363,11.63,0,7.496,0S0,3.363,0,7.497C0,13.129,7.008,19.608,7.307,19.922z M7.496,5.144c1.301,0,2.354,1.053,2.354,2.354
	c0,1.299-1.053,2.354-2.354,2.354c-1.3,0-2.354-1.055-2.354-2.354C5.143,6.196,6.196,5.144,7.496,5.144z"/>
</svg>
