<?xml version="1.0" encoding="utf-8"?>
<!-- Generator: Adobe Illustrator 16.0.0, SVG Export Plug-In . SVG Version: 6.00 Build 0)  -->
<!DOCTYPE svg PUBLIC "-//W3C//DTD SVG 1.1//EN" "http://www.w3.org/Graphics/SVG/1.1/DTD/svg11.dtd">
<svg version="1.1" id="Layer_1" xmlns="http://www.w3.org/2000/svg" xmlns:xlink="http://www.w3.org/1999/xlink" x="0px" y="0px"
	 width="65px" height="65px" viewBox="0 0 65 65" enable-background="new 0 0 65 65" xml:space="preserve">
<circle cx="32.5" cy="32.5" r="32.5"/>
<g>
	<path fill="#7CC3A8" d="M32.5,9.287c-3.911,0-7.082,3.17-7.082,7.082v0.714h2.74c0.733,0,1.329,0.595,1.329,1.329
		c0,0.734-0.595,1.329-1.329,1.329h-2.74v1.871h2.74c0.733,0,1.329,0.595,1.329,1.329s-0.595,1.329-1.329,1.329h-2.74v1.871h2.74
		c0.733,0,1.329,0.595,1.329,1.329s-0.595,1.329-1.329,1.329h-2.74v4.614c0,3.911,3.17,7.082,7.082,7.082s7.082-3.171,7.082-7.082
		V16.369C39.582,12.458,36.411,9.287,32.5,9.287z"/>
	<path fill="#7CC3A8" d="M43.997,26.214c-0.876,0-1.586,0.71-1.586,1.586v6c0,5.465-4.445,9.91-9.911,9.91
		c-5.465,0-9.911-4.445-9.911-9.91v-6c0-0.876-0.71-1.586-1.586-1.586s-1.586,0.71-1.586,1.586v6
		c0,6.677,5.028,12.201,11.497,12.986v5.755h-2.894c-0.876,0-1.586,0.71-1.586,1.586s0.71,1.586,1.586,1.586h8.96
		c0.876,0,1.586-0.71,1.586-1.586s-0.71-1.586-1.586-1.586h-2.895v-5.755c6.47-0.785,11.498-6.31,11.498-12.986v-6
		C45.584,26.924,44.873,26.214,43.997,26.214z"/>
</g>
</svg>
